<?xml version="1.0" encoding="UTF-8"?>
<svg id="Layer_1" data-name="Layer 1" xmlns="http://www.w3.org/2000/svg" viewBox="0 0 4513.91 623.1">
  <defs>
    <style>
      .cls-1 {
        fill: #231f20;
      }

      .cls-2 {
        fill: none;
        stroke: #231f20;
        stroke-miterlimit: 10;
        stroke-width: 5px;
      }
    </style>
  </defs>
  <g>
    <path d="M136.8,23.1c8.4,3.4,16.6,8.2,24.6,14.4,2.2,1.8,4.1,2.7,5.7,2.7,4,0,6.6-6,7.8-18h6.9c-.8,13.6-1.2,37.8-1.2,72.6h-6.9c-1.8-14.8-4.2-26.1-7.2-33.9-3-7.8-8.1-14.6-15.3-20.4-5-4.8-10.8-8.45-17.4-10.95-6.6-2.5-13.5-3.75-20.7-3.75-20.2,0-35.2,9.85-45,29.55-9.8,19.7-14.7,44.25-14.7,73.65s5.1,53.6,15.3,73.2c10.2,19.6,25.4,29.4,45.6,29.4,6.8,0,13.55-1.25,20.25-3.75,6.7-2.5,12.35-6.15,16.95-10.95,7.4-5.6,12.55-12.6,15.45-21,2.9-8.4,5.15-20.7,6.75-36.9h6.9c0,36.2.4,61.4,1.2,75.6h-6.9c-.6-6.4-1.45-10.95-2.55-13.65-1.1-2.7-2.65-4.05-4.65-4.05-1.6,0-3.7.8-6.3,2.4-9,6.4-17.6,11.25-25.8,14.55-8.2,3.3-18.1,4.95-29.7,4.95-21.2,0-39.75-4.3-55.65-12.9-15.9-8.6-28.25-21.05-37.05-37.35C4.4,172.25,0,152.8,0,130.2s4.5-41.5,13.5-58.5c9-17,21.55-30.2,37.65-39.6,16.1-9.4,34.45-14.1,55.05-14.1,12,0,22.2,1.7,30.6,5.1Z"/>
    <path d="M266.7,103.2c9-18.6,25.3-27.9,48.9-27.9,15.6,0,26.6,3.9,33,11.7,3.4,3.8,5.85,8.75,7.35,14.85,1.5,6.1,2.25,14.15,2.25,24.15v80.7c0,8.2,1.4,13.85,4.2,16.95,2.8,3.1,7.8,4.65,15,4.65v6.3c-20.8-.8-34-1.2-39.6-1.2-6.8,0-19.8.4-39,1.2v-6.3c6,0,10.2-1.55,12.6-4.65,2.4-3.1,3.6-8.75,3.6-16.95v-93.3c0-8.2-1.35-14.4-4.05-18.6-2.7-4.2-7.55-6.3-14.55-6.3-8.4,0-15.45,3.25-21.15,9.75-5.7,6.5-8.55,14.75-8.55,24.75v83.7c0,8.2,1.2,13.85,3.6,16.95,2.4,3.1,6.6,4.65,12.6,4.65v6.3c-19.2-.8-31.6-1.2-37.2-1.2-6.8,0-20.6.4-41.4,1.2v-6.3c7,0,11.95-1.55,14.85-4.65,2.9-3.1,4.35-8.75,4.35-16.95V36c0-9.2-1.45-15.9-4.35-20.1-2.9-4.2-7.85-6.3-14.85-6.3V3.3c6.4.6,12.6.9,18.6.9,17.4,0,32-1.4,43.8-4.2v103.2Z"/>
    <path d="M511.79,83.4c4.6,5.4,6.9,11.9,6.9,19.5s-2.15,13.45-6.45,18.15c-4.3,4.7-9.95,7.05-16.95,7.05s-12.2-1.75-16.2-5.25c-4-3.5-6-8.15-6-13.95,0-9.6,4.4-17.4,13.2-23.4-.8-.2-2-.3-3.6-.3-2,0-3.6.2-4.8.6-7.6,1.2-14.05,5.8-19.35,13.8-5.3,8-7.95,16.2-7.95,24.6v79.5c0,9.2,2.25,15.6,6.75,19.2,4.5,3.6,11.65,5.4,21.45,5.4v6.3c-2.8,0-5.1-.1-6.9-.3-20.4-.6-34-.9-40.8-.9-5.4,0-17.7.3-36.9.9-1.6.2-3.6.3-6,.3v-6.3c7.2,0,12.2-1.55,15-4.65,2.8-3.1,4.2-8.75,4.2-16.95v-94.5c0-9.2-1.4-15.9-4.2-20.1-2.8-4.2-7.8-6.3-15-6.3v-6.3c6.4.6,12.6.9,18.6.9,17.8,0,32.4-1.4,43.8-4.2v27.9c3.8-8.6,9.3-15.55,16.5-20.85,7.2-5.3,15.3-7.95,24.3-7.95s15.8,2.7,20.4,8.1Z"/>
    <path d="M590.69,206.7c0,8.2,1.45,13.85,4.35,16.95,2.9,3.1,7.85,4.65,14.85,4.65v6.3c-20-.8-33.3-1.2-39.9-1.2-6.2,0-20.1.4-41.7,1.2v-6.3c7.2,0,12.2-1.55,15-4.65,2.8-3.1,4.2-8.75,4.2-16.95v-94.5c0-9.2-1.4-15.9-4.2-20.1-2.8-4.2-7.8-6.3-15-6.3v-6.3c6.4.6,12.6.9,18.6.9,17.8,0,32.4-1.4,43.8-4.2v130.5ZM587.24,8.25c4.9,4.1,7.35,9.75,7.35,16.95s-2.45,12.85-7.35,16.95c-4.9,4.1-11.55,6.15-19.95,6.15s-15.05-2.05-19.95-6.15c-4.9-4.1-7.35-9.75-7.35-16.95s2.45-12.85,7.35-16.95c4.9-4.1,11.55-6.15,19.95-6.15s15.05,2.05,19.95,6.15Z"/>
    <path d="M703.19,78.15c6.4,1.9,11.3,4.05,14.7,6.45,2,1.4,3.8,2.1,5.4,2.1,1.8,0,3.35-.95,4.65-2.85,1.3-1.9,2.15-4.65,2.55-8.25h6.3c-.8,10.2-1.2,27.8-1.2,52.8h-6.3c-1.8-13.2-5.75-24.25-11.85-33.15-6.1-8.9-14.95-13.35-26.55-13.35-6,0-10.95,1.7-14.85,5.1-3.9,3.4-5.85,8.1-5.85,14.1,0,6.8,2.3,12.65,6.9,17.55,4.6,4.9,11.8,10.85,21.6,17.85l8.7,6.3c12.2,9.2,21.2,17.4,27,24.6,5.8,7.2,8.7,16.2,8.7,27,0,8.8-2.55,16.6-7.65,23.4-5.1,6.8-11.95,12-20.55,15.6-8.6,3.6-18.1,5.4-28.5,5.4-11,0-20.4-2.1-28.2-6.3-6.4-3.2-11-5.3-13.8-6.3-2-.6-3.75.05-5.25,1.95-1.5,1.9-2.65,4.75-3.45,8.55h-6.3c.8-11.4,1.2-31.4,1.2-60h6.3c4,36.8,17.5,55.2,40.5,55.2,5.8,0,10.75-1.75,14.85-5.25,4.1-3.5,6.15-8.85,6.15-16.05,0-5.6-1.25-10.6-3.75-15-2.5-4.4-5.65-8.3-9.45-11.7-3.8-3.4-9.5-8.1-17.1-14.1-9-7.2-15.85-13-20.55-17.4-4.7-4.4-8.7-9.6-12-15.6-3.3-6-4.95-12.7-4.95-20.1,0-12.8,5-22.9,15-30.3,10-7.4,22.2-11.1,36.6-11.1,7.6,0,14.6.95,21,2.85Z"/>
    <path d="M822.28,79.5h35.4v6h-35.4v121.2c0,6,1.05,10.25,3.15,12.75,2.1,2.5,5.45,3.75,10.05,3.75,8.6,0,15.4-6,20.4-18l5.1,2.7c-7.6,20.6-21.3,30.9-41.1,30.9-13.2,0-23.2-3.4-30-10.2-4.2-4.2-7.05-9.45-8.55-15.75s-2.25-14.95-2.25-25.95v-101.4h-25.2v-6h25.2v-39.6c16.6,0,31-3.2,43.2-9.6v49.2Z"/>
    <path d="M997.18,94.95c13,13.1,19.5,33.85,19.5,62.25s-6.5,49.1-19.5,62.1c-13,13-31,19.5-54,19.5s-40.75-6.5-53.85-19.5c-13.1-13-19.65-33.7-19.65-62.1s6.55-49.15,19.65-62.25c13.1-13.1,31.05-19.65,53.85-19.65s41,6.55,54,19.65ZM922.63,100.05c-5.1,12.5-7.65,31.55-7.65,57.15s2.55,44.6,7.65,57c5.1,12.4,11.95,18.6,20.55,18.6s15.7-6.15,20.7-18.45c5-12.3,7.5-31.35,7.5-57.15s-2.55-44.9-7.65-57.3c-5.1-12.4-11.95-18.6-20.55-18.6s-15.45,6.25-20.55,18.75Z"/>
    <path d="M1170.73,83.7c8.1,5.6,14.45,14,19.05,25.2,4.6,11.2,6.9,24.9,6.9,41.1,0,28.6-6.25,50.55-18.75,65.85-12.5,15.3-29.45,22.95-50.85,22.95-6,0-11.65-.8-16.95-2.4-5.3-1.6-9.85-4-13.65-7.2v30c0,8.8,2.2,14.9,6.6,18.3,4.4,3.4,11.2,5.1,20.4,5.1v6.3l-8.1-.3c-22.2-.6-36.3-.9-42.3-.9s-18.6.4-37.8,1.2v-6.3c6.6,0,11.25-1.45,13.95-4.35,2.7-2.9,4.05-8.25,4.05-16.05V112.2c0-9.2-1.45-15.9-4.35-20.1-2.9-4.2-7.85-6.3-14.85-6.3v-6.3c6.4.6,12.6.9,18.6.9,17.4,0,32-1.4,43.8-4.2v27.6c4.2-9.2,10.3-16.25,18.3-21.15,8-4.9,17.4-7.35,28.2-7.35s19.65,2.8,27.75,8.4ZM1142.98,211.65c5.6-12.7,8.4-31.25,8.4-55.65s-2.25-41.8-6.75-52.2c-4.5-10.4-10.95-15.6-19.35-15.6-6.8,0-12.85,2.3-18.15,6.9-5.3,4.6-8.85,11-10.65,19.2v108.3c4.8,5.4,11.1,8.1,18.9,8.1,12.8,0,22-6.35,27.6-19.05Z"/>
    <path d="M1276.17,103.2c9-18.6,25.3-27.9,48.9-27.9,15.6,0,26.6,3.9,33,11.7,3.4,3.8,5.85,8.75,7.35,14.85,1.5,6.1,2.25,14.15,2.25,24.15v80.7c0,8.2,1.4,13.85,4.2,16.95,2.8,3.1,7.8,4.65,15,4.65v6.3c-20.8-.8-34-1.2-39.6-1.2-6.8,0-19.8.4-39,1.2v-6.3c6,0,10.2-1.55,12.6-4.65,2.4-3.1,3.6-8.75,3.6-16.95v-93.3c0-8.2-1.35-14.4-4.05-18.6-2.7-4.2-7.55-6.3-14.55-6.3-8.4,0-15.45,3.25-21.15,9.75-5.7,6.5-8.55,14.75-8.55,24.75v83.7c0,8.2,1.2,13.85,3.6,16.95,2.4,3.1,6.6,4.65,12.6,4.65v6.3c-19.2-.8-31.6-1.2-37.2-1.2-6.8,0-20.6.4-41.4,1.2v-6.3c7,0,11.95-1.55,14.85-4.65,2.9-3.1,4.35-8.75,4.35-16.95V36c0-9.2-1.45-15.9-4.35-20.1-2.9-4.2-7.85-6.3-14.85-6.3V3.3c6.4.6,12.6.9,18.6.9,17.4,0,32-1.4,43.8-4.2v103.2Z"/>
    <path d="M1525.47,190.2l5.4,1.8c-4,13-11.15,24.05-21.45,33.15-10.3,9.1-23.15,13.65-38.55,13.65-21.2,0-38.05-6.75-50.55-20.25-12.5-13.5-18.75-33.45-18.75-59.85s6.7-47.65,20.1-61.95c13.4-14.3,31.2-21.45,53.4-21.45,37.6,0,56.4,22.2,56.4,66.6h-84.3c-.2,3-.3,7.7-.3,14.1,0,13.2,1.85,24.2,5.55,33,3.7,8.8,8.5,15.2,14.4,19.2,5.9,4,12.25,6,19.05,6,16.4,0,29.6-8,39.6-24ZM1455.42,94.95c-4.7,8.9-7.65,22.65-8.85,41.25h47.1c.4-15.8-1.15-28.85-4.65-39.15-3.5-10.3-8.75-15.45-15.75-15.45s-13.15,4.45-17.85,13.35Z"/>
    <path d="M1670.67,83.4c4.6,5.4,6.9,11.9,6.9,19.5s-2.15,13.45-6.45,18.15c-4.3,4.7-9.95,7.05-16.95,7.05s-12.2-1.75-16.2-5.25c-4-3.5-6-8.15-6-13.95,0-9.6,4.4-17.4,13.2-23.4-.8-.2-2-.3-3.6-.3-2,0-3.6.2-4.8.6-7.6,1.2-14.05,5.8-19.35,13.8-5.3,8-7.95,16.2-7.95,24.6v79.5c0,9.2,2.25,15.6,6.75,19.2,4.5,3.6,11.65,5.4,21.45,5.4v6.3c-2.8,0-5.1-.1-6.9-.3-20.4-.6-34-.9-40.8-.9-5.4,0-17.7.3-36.9.9-1.6.2-3.6.3-6,.3v-6.3c7.2,0,12.2-1.55,15-4.65,2.8-3.1,4.2-8.75,4.2-16.95v-94.5c0-9.2-1.4-15.9-4.2-20.1-2.8-4.2-7.8-6.3-15-6.3v-6.3c6.4.6,12.6.9,18.6.9,17.8,0,32.4-1.4,43.8-4.2v27.9c3.8-8.6,9.3-15.55,16.5-20.85,7.2-5.3,15.3-7.95,24.3-7.95s15.8,2.7,20.4,8.1Z"/>
    <path d="M1736.67,285c8.4-.8,15.35-3.25,20.85-7.35,5.5-4.1,9.7-10.9,12.6-20.4,2.9-9.5,4.35-22.45,4.35-38.85V54c0-7.6-.55-13.1-1.65-16.5-1.1-3.4-3.2-5.7-6.3-6.9-3.1-1.2-7.95-2-14.55-2.4v-6c10,.6,25.1.9,45.3.9s36.4-.3,47.4-.9v6c-6.8.4-11.7,1.2-14.7,2.4s-5.05,3.5-6.15,6.9c-1.1,3.4-1.65,8.9-1.65,16.5v128.1c0,28.2-1.7,48.2-5.1,60-4.2,14.6-13.15,26.4-26.85,35.4-13.7,9-31.55,13.5-53.55,13.5v-6Z"/>
    <path d="M1908.27,198.75c4.6,4.1,6.9,9.75,6.9,16.95s-2.3,12.85-6.9,16.95c-4.6,4.1-10.8,6.15-18.6,6.15s-14-2.05-18.6-6.15c-4.6-4.1-6.9-9.75-6.9-16.95s2.3-12.85,6.9-16.95c4.6-4.1,10.8-6.15,18.6-6.15s14,2.05,18.6,6.15Z"/>
    <path d="M2180.06,21.3c6.2,2,12.5,4.9,18.9,8.7,2.2,1.2,4.15,2.2,5.85,3,1.7.8,3.15,1.2,4.35,1.2,1.8,0,3.2-1.05,4.2-3.15,1-2.1,1.8-5.45,2.4-10.05h6.9c-1,13.4-1.5,36.2-1.5,68.4h-6.9c-.8-10.8-3.25-21.1-7.35-30.9-4.1-9.8-9.9-17.75-17.4-23.85-7.5-6.1-16.25-9.15-26.25-9.15s-17.75,2.75-23.85,8.25c-6.1,5.5-9.15,12.95-9.15,22.35,0,7,1.5,13.1,4.5,18.3,3,5.2,7.2,9.95,12.6,14.25,5.4,4.3,13.7,10.15,24.9,17.55l9.6,6.6c11.8,7.8,21.1,14.6,27.9,20.4,6.8,5.8,12.35,12.55,16.65,20.25,4.3,7.7,6.45,16.65,6.45,26.85,0,12.8-3.3,23.55-9.9,32.25-6.6,8.7-15.55,15.25-26.85,19.65-11.3,4.4-23.85,6.6-37.65,6.6-11.2,0-20.5-1-27.9-3-7.4-2-14.2-4.7-20.4-8.1-4.4-2.8-7.8-4.2-10.2-4.2-1.8,0-3.2,1.05-4.2,3.15-1,2.1-1.8,5.45-2.4,10.05h-6.9c.8-12.6,1.2-39.6,1.2-81h6.9c1.4,22.4,6.4,40.55,15,54.45,8.6,13.9,21.8,20.85,39.6,20.85,10.8,0,19.7-2.9,26.7-8.7,7-5.8,10.5-14.1,10.5-24.9s-3.6-20.8-10.8-28.8c-7.2-8-18.6-17-34.2-27-12-7.8-21.6-14.6-28.8-20.4-7.2-5.8-13.1-12.65-17.7-20.55-4.6-7.9-6.9-17.05-6.9-27.45,0-12,3.05-22.15,9.15-30.45,6.1-8.3,14.25-14.45,24.45-18.45,10.2-4,21.4-6,33.6-6,10.4,0,18.7,1,24.9,3Z"/>
    <path d="M2497.91,223.65c2.9,3.1,7.85,4.65,14.85,4.65v6.3c-20-.8-33.2-1.2-39.6-1.2-5.6,0-18,.4-37.2,1.2v-6.3c5.4,0,9.15-1.5,11.25-4.5,2.1-3,3.15-8.7,3.15-17.1v-93.3c0-8.4-1.25-14.65-3.75-18.75-2.5-4.1-7.25-6.15-14.25-6.15-7.4,0-13.85,3.1-19.35,9.3-5.5,6.2-8.75,13.8-9.75,22.8v86.1c0,8.2,1.25,13.85,3.75,16.95,2.5,3.1,7.05,4.65,13.65,4.65v6.3c-19.2-.8-31.8-1.2-37.8-1.2-5.6,0-18,.4-37.2,1.2v-6.3c5.4,0,9.15-1.55,11.25-4.65,2.1-3.1,3.15-8.75,3.15-16.95v-93.3c0-8.4-1.1-14.65-3.3-18.75-2.2-4.1-6.5-6.15-12.9-6.15-8,0-14.85,3.35-20.55,10.05-5.7,6.7-8.55,14.95-8.55,24.75v83.4c0,8.2,1.05,13.85,3.15,16.95,2.1,3.1,5.85,4.65,11.25,4.65v6.3c-17.6-.8-29.4-1.2-35.4-1.2s-19.8.4-41.4,1.2v-6.3c7.2,0,12.2-1.55,15-4.65,2.8-3.1,4.2-8.75,4.2-16.95v-94.5c0-9.2-1.4-15.9-4.2-20.1-2.8-4.2-7.8-6.3-15-6.3v-6.3c6.4.6,12.6.9,18.6.9,17.8,0,32.4-1.4,43.8-4.2v27c8.8-18.6,24.3-27.9,46.5-27.9,15.2,0,26.2,3.9,33,11.7,3.8,4,6.3,10,7.5,18,5.2-10.8,12-18.45,20.4-22.95,8.4-4.5,18.2-6.75,29.4-6.75,15.2,0,26.2,3.9,33,11.7,3.2,3.6,5.5,8.5,6.9,14.7,1.4,6.2,2.1,14.3,2.1,24.3v80.7c0,8.2,1.45,13.85,4.35,16.95Z"/>
    <path d="M2586.26,206.7c0,8.2,1.45,13.85,4.35,16.95,2.9,3.1,7.85,4.65,14.85,4.65v6.3c-20-.8-33.3-1.2-39.9-1.2-6.2,0-20.1.4-41.7,1.2v-6.3c7.2,0,12.2-1.55,15-4.65,2.8-3.1,4.2-8.75,4.2-16.95v-94.5c0-9.2-1.4-15.9-4.2-20.1-2.8-4.2-7.8-6.3-15-6.3v-6.3c6.4.6,12.6.9,18.6.9,17.8,0,32.4-1.4,43.8-4.2v130.5ZM2582.81,8.25c4.9,4.1,7.35,9.75,7.35,16.95s-2.45,12.85-7.35,16.95c-4.9,4.1-11.55,6.15-19.95,6.15s-15.05-2.05-19.95-6.15c-4.9-4.1-7.35-9.75-7.35-16.95s2.45-12.85,7.35-16.95c4.9-4.1,11.55-6.15,19.95-6.15s15.05,2.05,19.95,6.15Z"/>
    <path d="M2679.25,79.5h35.4v6h-35.4v121.2c0,6,1.05,10.25,3.15,12.75,2.1,2.5,5.45,3.75,10.05,3.75,8.6,0,15.4-6,20.4-18l5.1,2.7c-7.6,20.6-21.3,30.9-41.1,30.9-13.2,0-23.2-3.4-30-10.2-4.2-4.2-7.05-9.45-8.55-15.75s-2.25-14.95-2.25-25.95v-101.4h-25.2v-6h25.2v-39.6c16.6,0,31-3.2,43.2-9.6v49.2Z"/>
    <path d="M2784.85,103.2c9-18.6,25.3-27.9,48.9-27.9,15.6,0,26.6,3.9,33,11.7,3.4,3.8,5.85,8.75,7.35,14.85,1.5,6.1,2.25,14.15,2.25,24.15v80.7c0,8.2,1.4,13.85,4.2,16.95,2.8,3.1,7.8,4.65,15,4.65v6.3c-20.8-.8-34-1.2-39.6-1.2-6.8,0-19.8.4-39,1.2v-6.3c6,0,10.2-1.55,12.6-4.65,2.4-3.1,3.6-8.75,3.6-16.95v-93.3c0-8.2-1.35-14.4-4.05-18.6-2.7-4.2-7.55-6.3-14.55-6.3-8.4,0-15.45,3.25-21.15,9.75-5.7,6.5-8.55,14.75-8.55,24.75v83.7c0,8.2,1.2,13.85,3.6,16.95,2.4,3.1,6.6,4.65,12.6,4.65v6.3c-19.2-.8-31.6-1.2-37.2-1.2-6.8,0-20.6.4-41.4,1.2v-6.3c7,0,11.95-1.55,14.85-4.65,2.9-3.1,4.35-8.75,4.35-16.95V36c0-9.2-1.45-15.9-4.35-20.1-2.9-4.2-7.85-6.3-14.85-6.3V3.3c6.4.6,12.6.9,18.6.9,17.4,0,32-1.4,43.8-4.2v103.2Z"/>
  </g>
  <g>
    <path d="M2509.94,431.7v139h-22.8v-95.2l-42.4,95.2h-15.8l-42.6-95.2v95.2h-22.8v-139h24.6l48.8,109,48.6-109h24.4Z"/>
    <path d="M2561.54,565.4c-8.4-4.73-15-11.4-19.8-20-4.8-8.6-7.2-18.57-7.2-29.9s2.47-21.13,7.4-29.8c4.93-8.67,11.67-15.33,20.2-20,8.53-4.67,18.07-7,28.6-7s20.07,2.33,28.6,7c8.53,4.67,15.27,11.33,20.2,20,4.93,8.67,7.4,18.6,7.4,29.8s-2.53,21.13-7.6,29.8c-5.07,8.67-11.97,15.37-20.7,20.1-8.73,4.73-18.37,7.1-28.9,7.1s-19.8-2.37-28.2-7.1ZM2606.24,548.5c5.13-2.8,9.3-7,12.5-12.6,3.2-5.6,4.8-12.4,4.8-20.4s-1.53-14.77-4.6-20.3c-3.07-5.53-7.13-9.7-12.2-12.5-5.07-2.8-10.53-4.2-16.4-4.2s-11.3,1.4-16.3,4.2-8.97,6.97-11.9,12.5c-2.93,5.53-4.4,12.3-4.4,20.3,0,11.87,3.03,21.03,9.1,27.5,6.07,6.47,13.7,9.7,22.9,9.7,5.87,0,11.37-1.4,16.5-4.2Z"/>
    <path d="M2698.14,479.1v61c0,4.13.97,7.1,2.9,8.9,1.93,1.8,5.23,2.7,9.9,2.7h14v19h-18c-10.27,0-18.13-2.4-23.6-7.2-5.47-4.8-8.2-12.6-8.2-23.4v-61h-13v-18.6h13v-27.4h23v27.4h26.8v18.6h-26.8Z"/>
    <path d="M2749.14,441.7c-2.8-2.8-4.2-6.27-4.2-10.4s1.4-7.6,4.2-10.4,6.27-4.2,10.4-4.2,7.4,1.4,10.2,4.2,4.2,6.27,4.2,10.4-1.4,7.6-4.2,10.4-6.2,4.2-10.2,4.2-7.6-1.4-10.4-4.2ZM2770.74,460.5v110.2h-22.8v-110.2h22.8Z"/>
    <path d="M2845.34,550.3l31.2-89.8h24.2l-42,110.2h-27.2l-41.8-110.2h24.4l31.2,89.8Z"/>
    <path d="M2919.23,485.7c4.6-8.53,10.87-15.17,18.8-19.9,7.93-4.73,16.7-7.1,26.3-7.1,8.67,0,16.23,1.7,22.7,5.1,6.47,3.4,11.63,7.63,15.5,12.7v-16h23v110.2h-23v-16.4c-3.87,5.2-9.13,9.54-15.8,13-6.67,3.47-14.27,5.2-22.8,5.2-9.47,0-18.13-2.43-26-7.3-7.87-4.87-14.1-11.67-18.7-20.4-4.6-8.73-6.9-18.63-6.9-29.7s2.3-20.87,6.9-29.4ZM2997.83,495.7c-3.13-5.6-7.23-9.87-12.3-12.8-5.07-2.93-10.53-4.4-16.4-4.4s-11.33,1.43-16.4,4.3c-5.07,2.87-9.17,7.07-12.3,12.6-3.13,5.53-4.7,12.1-4.7,19.7s1.57,14.27,4.7,20c3.13,5.73,7.27,10.1,12.4,13.1,5.13,3,10.57,4.5,16.3,4.5s11.33-1.47,16.4-4.4c5.07-2.93,9.17-7.23,12.3-12.9,3.13-5.67,4.7-12.3,4.7-19.9s-1.57-14.2-4.7-19.8Z"/>
    <path d="M3084.13,479.1v61c0,4.13.97,7.1,2.9,8.9,1.93,1.8,5.23,2.7,9.9,2.7h14v19h-18c-10.27,0-18.13-2.4-23.6-7.2-5.47-4.8-8.2-12.6-8.2-23.4v-61h-13v-18.6h13v-27.4h23v27.4h26.8v18.6h-26.8Z"/>
    <path d="M3135.13,441.7c-2.8-2.8-4.2-6.27-4.2-10.4s1.4-7.6,4.2-10.4,6.27-4.2,10.4-4.2,7.4,1.4,10.2,4.2,4.2,6.27,4.2,10.4-1.4,7.6-4.2,10.4-6.2,4.2-10.2,4.2-7.6-1.4-10.4-4.2ZM3156.73,460.5v110.2h-22.8v-110.2h22.8Z"/>
    <path d="M3208.33,565.4c-8.4-4.73-15-11.4-19.8-20-4.8-8.6-7.2-18.57-7.2-29.9s2.47-21.13,7.4-29.8c4.93-8.67,11.67-15.33,20.2-20,8.53-4.67,18.07-7,28.6-7s20.07,2.33,28.6,7c8.53,4.67,15.27,11.33,20.2,20,4.93,8.67,7.4,18.6,7.4,29.8s-2.53,21.13-7.6,29.8c-5.07,8.67-11.97,15.37-20.7,20.1-8.73,4.73-18.37,7.1-28.9,7.1s-19.8-2.37-28.2-7.1ZM3253.03,548.5c5.13-2.8,9.3-7,12.5-12.6,3.2-5.6,4.8-12.4,4.8-20.4s-1.53-14.77-4.6-20.3c-3.07-5.53-7.13-9.7-12.2-12.5-5.07-2.8-10.53-4.2-16.4-4.2s-11.3,1.4-16.3,4.2-8.97,6.97-11.9,12.5c-2.93,5.53-4.4,12.3-4.4,20.3,0,11.87,3.03,21.03,9.1,27.5,6.07,6.47,13.7,9.7,22.9,9.7,5.87,0,11.37-1.4,16.5-4.2Z"/>
    <path d="M3397.23,464.1c6.87,3.6,12.23,8.93,16.1,16,3.87,7.07,5.8,15.6,5.8,25.6v65h-22.6v-61.6c0-9.87-2.47-17.43-7.4-22.7-4.93-5.27-11.67-7.9-20.2-7.9s-15.3,2.63-20.3,7.9c-5,5.27-7.5,12.83-7.5,22.7v61.6h-22.8v-110.2h22.8v12.6c3.73-4.53,8.5-8.07,14.3-10.6,5.8-2.53,11.97-3.8,18.5-3.8,8.67,0,16.43,1.8,23.3,5.4Z"/>
    <path d="M3449.42,485.7c4.6-8.53,10.87-15.17,18.8-19.9,7.93-4.73,16.7-7.1,26.3-7.1,8.67,0,16.23,1.7,22.7,5.1,6.47,3.4,11.63,7.63,15.5,12.7v-16h23v110.2h-23v-16.4c-3.87,5.2-9.13,9.54-15.8,13-6.67,3.47-14.27,5.2-22.8,5.2-9.47,0-18.13-2.43-26-7.3-7.87-4.87-14.1-11.67-18.7-20.4-4.6-8.73-6.9-18.63-6.9-29.7s2.3-20.87,6.9-29.4ZM3528.02,495.7c-3.13-5.6-7.23-9.87-12.3-12.8-5.07-2.93-10.53-4.4-16.4-4.4s-11.33,1.43-16.4,4.3c-5.07,2.87-9.17,7.07-12.3,12.6-3.13,5.53-4.7,12.1-4.7,19.7s1.57,14.27,4.7,20c3.13,5.73,7.27,10.1,12.4,13.1,5.13,3,10.57,4.5,16.3,4.5s11.33-1.47,16.4-4.4c5.07-2.93,9.17-7.23,12.3-12.9,3.13-5.67,4.7-12.3,4.7-19.9s-1.57-14.2-4.7-19.8Z"/>
    <path d="M3610.52,422.7v148h-22.8v-148h22.8Z"/>
    <path d="M3717.12,567.2c-7.47-3.27-13.33-7.9-17.6-13.9-4.27-6-6.4-13-6.4-21h24.4c.53,6,2.9,10.93,7.1,14.8,4.2,3.87,10.1,5.8,17.7,5.8s14-1.9,18.4-5.7c4.4-3.8,6.6-8.7,6.6-14.7,0-4.67-1.37-8.47-4.1-11.4-2.73-2.93-6.13-5.2-10.2-6.8-4.07-1.6-9.7-3.33-16.9-5.2-9.07-2.4-16.43-4.83-22.1-7.3-5.67-2.46-10.5-6.3-14.5-11.5-4-5.2-6-12.13-6-20.8,0-8,2-15,6-21s9.6-10.6,16.8-13.8,15.53-4.8,25-4.8c13.47,0,24.5,3.37,33.1,10.1,8.6,6.73,13.37,15.97,14.3,27.7h-25.2c-.4-5.07-2.8-9.4-7.2-13-4.4-3.6-10.2-5.4-17.4-5.4-6.54,0-11.87,1.67-16,5-4.13,3.33-6.2,8.13-6.2,14.4,0,4.27,1.3,7.77,3.9,10.5,2.6,2.73,5.9,4.9,9.9,6.5s9.47,3.33,16.4,5.2c9.2,2.53,16.7,5.07,22.5,7.6,5.8,2.53,10.73,6.43,14.8,11.7,4.07,5.27,6.1,12.3,6.1,21.1,0,7.07-1.9,13.73-5.7,20-3.8,6.27-9.33,11.3-16.6,15.1-7.27,3.8-15.83,5.7-25.7,5.7-9.33,0-17.73-1.63-25.2-4.9Z"/>
    <path d="M3857.92,463.9c6.67-3.47,14.2-5.2,22.6-5.2,9.6,0,18.37,2.37,26.3,7.1,7.93,4.73,14.17,11.37,18.7,19.9,4.53,8.53,6.8,18.33,6.8,29.4s-2.27,20.97-6.8,29.7c-4.53,8.73-10.77,15.54-18.7,20.4-7.93,4.87-16.7,7.3-26.3,7.3-8.4,0-15.87-1.7-22.4-5.1-6.53-3.4-11.87-7.63-16-12.7v68.4h-22.8v-162.6h22.8v16.2c3.87-5.07,9.13-9.33,15.8-12.8ZM3904.42,495.4c-3.13-5.53-7.27-9.73-12.4-12.6-5.13-2.87-10.63-4.3-16.5-4.3s-11.17,1.47-16.3,4.4c-5.13,2.93-9.27,7.2-12.4,12.8-3.13,5.6-4.7,12.2-4.7,19.8s1.57,14.23,4.7,19.9c3.13,5.67,7.27,9.97,12.4,12.9,5.13,2.93,10.57,4.4,16.3,4.4s11.37-1.5,16.5-4.5c5.13-3,9.27-7.37,12.4-13.1,3.13-5.73,4.7-12.4,4.7-20s-1.57-14.17-4.7-19.7Z"/>
    <path d="M4057.12,524.1h-84.2c.67,8.8,3.93,15.87,9.8,21.2,5.87,5.33,13.07,8,21.6,8,12.27,0,20.93-5.13,26-15.4h24.6c-3.33,10.13-9.37,18.43-18.1,24.9-8.73,6.47-19.57,9.7-32.5,9.7-10.54,0-19.97-2.37-28.3-7.1-8.33-4.73-14.87-11.4-19.6-20-4.73-8.6-7.1-18.57-7.1-29.9s2.3-21.3,6.9-29.9c4.6-8.6,11.07-15.23,19.4-19.9,8.33-4.67,17.9-7,28.7-7s19.67,2.27,27.8,6.8c8.13,4.53,14.47,10.9,19,19.1,4.53,8.2,6.8,17.63,6.8,28.3,0,4.13-.27,7.87-.8,11.2ZM4034.12,505.7c-.13-8.4-3.13-15.13-9-20.2-5.87-5.07-13.13-7.6-21.8-7.6-7.87,0-14.6,2.5-20.2,7.5-5.6,5-8.93,11.77-10,20.3h61Z"/>
    <path d="M4081.61,485.7c4.6-8.53,10.87-15.17,18.8-19.9,7.93-4.73,16.7-7.1,26.3-7.1,8.67,0,16.23,1.7,22.7,5.1,6.47,3.4,11.63,7.63,15.5,12.7v-16h23v110.2h-23v-16.4c-3.87,5.2-9.13,9.54-15.8,13-6.67,3.47-14.27,5.2-22.8,5.2-9.47,0-18.13-2.43-26-7.3-7.87-4.87-14.1-11.67-18.7-20.4-4.6-8.73-6.9-18.63-6.9-29.7s2.3-20.87,6.9-29.4ZM4160.21,495.7c-3.13-5.6-7.23-9.87-12.3-12.8-5.07-2.93-10.53-4.4-16.4-4.4s-11.33,1.43-16.4,4.3c-5.07,2.87-9.17,7.07-12.3,12.6-3.13,5.53-4.7,12.1-4.7,19.7s1.57,14.27,4.7,20c3.13,5.73,7.27,10.1,12.4,13.1,5.13,3,10.57,4.5,16.3,4.5s11.33-1.47,16.4-4.4c5.07-2.93,9.17-7.23,12.3-12.9,3.13-5.67,4.7-12.3,4.7-19.9s-1.57-14.2-4.7-19.8Z"/>
    <path d="M4263.51,515.7l50.8,55h-30.8l-40.8-47.4v47.4h-22.8v-148h22.8v86l40-48.2h31.6l-50.8,55.2Z"/>
    <path d="M4432.91,524.1h-84.2c.67,8.8,3.93,15.87,9.8,21.2,5.87,5.33,13.07,8,21.6,8,12.27,0,20.93-5.13,26-15.4h24.6c-3.33,10.13-9.37,18.43-18.1,24.9-8.73,6.47-19.57,9.7-32.5,9.7-10.54,0-19.97-2.37-28.3-7.1-8.33-4.73-14.87-11.4-19.6-20-4.73-8.6-7.1-18.57-7.1-29.9s2.3-21.3,6.9-29.9c4.6-8.6,11.07-15.23,19.4-19.9,8.33-4.67,17.9-7,28.7-7s19.67,2.27,27.8,6.8c8.13,4.53,14.47,10.9,19,19.1,4.53,8.2,6.8,17.63,6.8,28.3,0,4.13-.27,7.87-.8,11.2ZM4409.91,505.7c-.13-8.4-3.13-15.13-9-20.2-5.87-5.07-13.13-7.6-21.8-7.6-7.87,0-14.6,2.5-20.2,7.5-5.6,5-8.93,11.77-10,20.3h61Z"/>
    <path d="M4494.21,463.4c5.53-3.13,12.1-4.7,19.7-4.7v23.6h-5.8c-8.93,0-15.7,2.27-20.3,6.8-4.6,4.53-6.9,12.4-6.9,23.6v58h-22.8v-110.2h22.8v16c3.33-5.6,7.77-9.97,13.3-13.1Z"/>
  </g>
  <g>
    <line class="cls-2" y1="508.77" x2="2166.82" y2="508.77"/>
    <polygon class="cls-1" points="2152.78 527.29 2160.64 508.77 2152.78 490.26 2196.67 508.77 2152.78 527.29"/>
  </g>
</svg>